<?xml version="1.0" encoding="iso-8859-1"?>
<!-- Generator: Adobe Illustrator 19.0.0, SVG Export Plug-In . SVG Version: 6.00 Build 0)  -->
<svg version="1.1" id="Layer_1" xmlns="http://www.w3.org/2000/svg" xmlns:xlink="http://www.w3.org/1999/xlink" x="0px" y="0px"
	 viewBox="0 0 511.994 511.994" style="enable-background:new 0 0 511.994 511.994;" xml:space="preserve">
<g>
	<g>
		<path fill="#fff" d="M98.444,234.941c-4.907-1.131-9.792,1.173-12.01,5.611l-10.667,21.333c-1.643,3.307-1.472,7.232,0.448,10.368
			c1.984,3.158,5.419,5.077,9.109,5.077h10.667c5.888,0,10.667-4.779,10.667-10.667V245.33
			C106.658,240.381,103.266,236.072,98.444,234.941z"/>
	</g>
</g>
<g>
	<g>
		<path fill="#fff" d="M391.522,248.445l-21.312-21.312c-1.301-1.301-3.008-2.091-4.842-2.603c-0.448-0.128-0.854-0.214-1.323-0.277
			c-0.469-0.043-0.896-0.256-1.387-0.256h-32c-5.888,0-10.667,4.779-10.667,10.667c0,5.888,4.779,10.667,10.667,10.667h21.333
			v21.333h-21.333c-5.888,0-10.667,4.779-10.667,10.667s4.779,10.667,10.667,10.667h32c1.408,0,2.795-0.277,4.075-0.832
			c1.301-0.533,2.496-1.323,3.477-2.326l21.312-21.312C395.682,259.368,395.682,252.605,391.522,248.445z"/>
	</g>
</g>
<g>
	<g>
		<path fill="#fff" d="M509.515,313.17l-47.658-57.173l47.637-57.173c2.667-3.178,3.221-7.616,1.472-11.35c-1.749-3.755-5.504-6.144-9.643-6.144
			h-53.333c-2.837,0-5.547,1.131-7.552,3.115l-24.448,24.469l-24.448-24.448c-2.005-2.005-4.715-3.136-7.552-3.136H244.877
			c-3.755,0-7.232,1.963-9.152,5.184l-22.848,38.102l-22.848-38.102c-1.92-3.221-5.397-5.184-9.152-5.184H74.658
			c-4.032,0-7.723,2.283-9.536,5.888l-64,128c-1.643,3.307-1.472,7.232,0.448,10.368c1.963,3.158,5.397,5.077,9.088,5.077h53.333
			c4.032,0,7.723-2.283,9.536-5.888l7.701-15.445h4.096v10.667c0,5.888,4.779,10.667,10.667,10.667h85.333
			c5.163,0,9.472-3.669,10.453-8.555l1.344,2.667c1.813,3.605,5.482,5.888,9.536,5.888h21.333c4.032,0,7.723-2.283,9.536-5.888
			l1.344-2.667c0.981,4.885,5.29,8.555,10.453,8.555H383.99c2.837,0,5.547-1.131,7.552-3.115l24.448-24.448l24.448,24.448
			c2.005,1.984,4.715,3.115,7.552,3.115h53.333c4.139,0,7.893-2.389,9.664-6.144C512.737,320.787,512.182,316.349,509.515,313.17z
			 M276.898,309.33h-20.907v-32c0-4.949-3.392-9.258-8.214-10.389c-4.885-1.131-9.792,1.173-12.01,5.611l-18.368,36.779h-8.171
			l-18.368-36.779c-2.219-4.438-7.083-6.742-12.01-5.611c-4.8,1.131-8.192,5.44-8.192,10.389v32h-64v-10.667
			c0-5.888-4.779-10.667-10.667-10.667H74.659c-4.032,0-7.723,2.283-9.536,5.888L57.4,309.33H27.896l53.333-106.667h46.762v74.667
			c0,5.888,4.779,10.667,10.667,10.667c5.888,0,10.667-4.779,10.667-10.667v-74.667h25.515l28.885,48.149
			c3.84,6.421,14.464,6.421,18.283,0l28.928-48.149h25.963V309.33z M452.407,309.351v-0.021l-28.885-28.885
			c-4.16-4.16-10.922-4.16-15.083,0l-28.864,28.885h-81.344V202.664h81.344l28.885,28.885c4.16,4.16,10.922,4.16,15.083,0
			l28.864-28.885h26.155l-38.742,46.507c-3.307,3.968-3.307,9.706,0,13.674l38.742,46.506H452.407z"/>
	</g>
</g>
<g>
</g>
<g>
</g>
<g>
</g>
<g>
</g>
<g>
</g>
<g>
</g>
<g>
</g>
<g>
</g>
<g>
</g>
<g>
</g>
<g>
</g>
<g>
</g>
<g>
</g>
<g>
</g>
<g>
</g>
</svg>
